<svg width="1104" height="1288" viewBox="0 0 1104 1288" fill="none" xmlns="http://www.w3.org/2000/svg">
<g filter="url(#filter0_d)">
<rect x="16" width="1072" height="1256" rx="15" fill="#979797"/>
<rect x="16.5" y="0.5" width="1071" height="1255" rx="14.5" stroke="#828282"/>
</g>
<g filter="url(#filter1_d)">
<circle cx="298" cy="242" r="154" fill="#219653"/>
</g>
<g filter="url(#filter2_d)">
<circle cx="778" cy="242" r="154" fill="#FFCD40"/>
<circle cx="778" cy="242" r="153.5" stroke="#E8B117"/>
</g>
<g filter="url(#filter3_d)">
<circle cx="298" cy="1010" r="154" fill="#FFCD40"/>
<circle cx="298" cy="1010" r="153.5" stroke="#E8B117"/>
</g>
<g filter="url(#filter4_d)">
<circle cx="782" cy="1010" r="154" fill="#FFCD40"/>
<circle cx="782" cy="1010" r="153.5" stroke="#E8B117"/>
</g>
<g filter="url(#filter5_d)">
<circle cx="778" cy="626" r="154" fill="#FFCD40"/>
<circle cx="778" cy="626" r="153.5" stroke="#E8B117"/>
</g>
<path d="M287.169 319.996L210.239 227.079L364.099 227.079L287.169 319.996Z" fill="white"/>
<path d="M288.844 296.018L219.171 215.09L358.517 215.09L288.844 296.018Z" fill="#219653"/>
<path d="M228.451 188.114L298.21 268.943L158.865 269.141L228.451 188.114Z" fill="#219653"/>
<path d="M268.064 171.2V187.232H286.912V192.288H268.064V212H261.856V166.144H290.112V171.2H268.064ZM299.358 186.08C300.382 183.861 301.64 182.133 303.134 180.896C304.627 179.637 306.451 179.008 308.606 179.008C309.288 179.008 309.939 179.083 310.558 179.232C311.198 179.381 311.763 179.616 312.254 179.936L311.838 184.192C311.71 184.725 311.39 184.992 310.878 184.992C310.579 184.992 310.142 184.928 309.566 184.8C308.99 184.672 308.339 184.608 307.614 184.608C306.59 184.608 305.672 184.757 304.862 185.056C304.072 185.355 303.358 185.803 302.718 186.4C302.099 186.976 301.534 187.701 301.022 188.576C300.531 189.429 300.083 190.411 299.678 191.52V212H293.95V179.584H297.214C297.832 179.584 298.259 179.701 298.494 179.936C298.728 180.171 298.888 180.576 298.974 181.152L299.358 186.08ZM323.278 179.584V212H317.582V179.584H323.278ZM324.494 169.408C324.494 169.963 324.377 170.485 324.142 170.976C323.929 171.445 323.63 171.872 323.246 172.256C322.883 172.619 322.446 172.907 321.934 173.12C321.443 173.333 320.921 173.44 320.366 173.44C319.811 173.44 319.289 173.333 318.798 173.12C318.329 172.907 317.913 172.619 317.55 172.256C317.187 171.872 316.899 171.445 316.686 170.976C316.473 170.485 316.366 169.963 316.366 169.408C316.366 168.853 316.473 168.331 316.686 167.84C316.899 167.328 317.187 166.891 317.55 166.528C317.913 166.144 318.329 165.845 318.798 165.632C319.289 165.419 319.811 165.312 320.366 165.312C320.921 165.312 321.443 165.419 321.934 165.632C322.446 165.845 322.883 166.144 323.246 166.528C323.63 166.891 323.929 167.328 324.142 167.84C324.377 168.331 324.494 168.853 324.494 169.408Z" fill="white"/>
<path d="M287.169 319.996L210.239 227.079L364.099 227.079L287.169 319.996Z" fill="white"/>
<path d="M288.844 296.018L219.171 215.09L358.517 215.09L288.844 296.018Z" fill="#219653"/>
<path d="M228.451 188.114L298.21 268.943L158.865 269.141L228.451 188.114Z" fill="#219653"/>
<g filter="url(#filter6_d)">
<circle cx="298" cy="638" r="154" fill="#219653"/>
</g>
<path d="M285.312 569.312C285.12 569.632 284.907 569.877 284.672 570.048C284.459 570.197 284.192 570.272 283.872 570.272C283.509 570.272 283.083 570.091 282.592 569.728C282.101 569.365 281.483 568.971 280.736 568.544C280.011 568.096 279.125 567.691 278.08 567.328C277.056 566.965 275.808 566.784 274.336 566.784C272.949 566.784 271.723 566.976 270.656 567.36C269.611 567.723 268.725 568.224 268 568.864C267.296 569.504 266.763 570.261 266.4 571.136C266.037 571.989 265.856 572.917 265.856 573.92C265.856 575.2 266.165 576.267 266.784 577.12C267.424 577.952 268.256 578.667 269.28 579.264C270.325 579.861 271.499 580.384 272.8 580.832C274.123 581.259 275.467 581.707 276.832 582.176C278.219 582.645 279.563 583.179 280.864 583.776C282.187 584.352 283.36 585.088 284.384 585.984C285.429 586.88 286.261 587.979 286.88 589.28C287.52 590.581 287.84 592.181 287.84 594.08C287.84 596.085 287.499 597.973 286.816 599.744C286.133 601.493 285.131 603.019 283.808 604.32C282.507 605.621 280.896 606.645 278.976 607.392C277.077 608.139 274.912 608.512 272.48 608.512C269.493 608.512 266.784 607.979 264.352 606.912C261.92 605.824 259.84 604.363 258.112 602.528L259.904 599.584C260.075 599.349 260.277 599.157 260.512 599.008C260.768 598.837 261.045 598.752 261.344 598.752C261.621 598.752 261.931 598.869 262.272 599.104C262.635 599.317 263.04 599.595 263.488 599.936C263.936 600.277 264.448 600.651 265.024 601.056C265.6 601.461 266.251 601.835 266.976 602.176C267.723 602.517 268.565 602.805 269.504 603.04C270.443 603.253 271.499 603.36 272.672 603.36C274.144 603.36 275.456 603.157 276.608 602.752C277.76 602.347 278.731 601.781 279.52 601.056C280.331 600.309 280.949 599.424 281.376 598.4C281.803 597.376 282.016 596.235 282.016 594.976C282.016 593.589 281.696 592.459 281.056 591.584C280.437 590.688 279.616 589.941 278.592 589.344C277.568 588.747 276.395 588.245 275.072 587.84C273.749 587.413 272.405 586.987 271.04 586.56C269.675 586.112 268.331 585.6 267.008 585.024C265.685 584.448 264.512 583.701 263.488 582.784C262.464 581.867 261.632 580.725 260.992 579.36C260.373 577.973 260.064 576.267 260.064 574.24C260.064 572.619 260.373 571.051 260.992 569.536C261.632 568.021 262.549 566.677 263.744 565.504C264.96 564.331 266.443 563.392 268.192 562.688C269.963 561.984 271.989 561.632 274.272 561.632C276.832 561.632 279.157 562.037 281.248 562.848C283.36 563.659 285.216 564.832 286.816 566.368L285.312 569.312ZM312.393 593.408C309.769 593.493 307.529 593.707 305.673 594.048C303.838 594.368 302.334 594.795 301.161 595.328C300.009 595.861 299.166 596.491 298.633 597.216C298.121 597.941 297.865 598.752 297.865 599.648C297.865 600.501 298.003 601.237 298.281 601.856C298.558 602.475 298.931 602.987 299.401 603.392C299.891 603.776 300.457 604.064 301.097 604.256C301.758 604.427 302.462 604.512 303.209 604.512C304.211 604.512 305.129 604.416 305.961 604.224C306.793 604.011 307.571 603.712 308.297 603.328C309.043 602.944 309.747 602.485 310.409 601.952C311.091 601.419 311.753 600.811 312.393 600.128V593.408ZM293.993 580.16C295.785 578.432 297.715 577.141 299.785 576.288C301.854 575.435 304.147 575.008 306.665 575.008C308.478 575.008 310.089 575.307 311.497 575.904C312.905 576.501 314.089 577.333 315.049 578.4C316.009 579.467 316.734 580.757 317.225 582.272C317.715 583.787 317.961 585.451 317.961 587.264V608H315.433C314.878 608 314.451 607.915 314.153 607.744C313.854 607.552 313.619 607.189 313.449 606.656L312.809 603.584C311.955 604.373 311.123 605.077 310.312 605.696C309.502 606.293 308.649 606.805 307.753 607.232C306.857 607.637 305.897 607.947 304.873 608.16C303.87 608.395 302.75 608.512 301.513 608.512C300.254 608.512 299.07 608.341 297.961 608C296.851 607.637 295.881 607.104 295.049 606.4C294.238 605.696 293.587 604.811 293.097 603.744C292.627 602.656 292.393 601.376 292.393 599.904C292.393 598.624 292.745 597.397 293.449 596.224C294.153 595.029 295.294 593.973 296.873 593.056C298.451 592.139 300.51 591.392 303.049 590.816C305.587 590.219 308.702 589.877 312.393 589.792V587.264C312.393 584.747 311.849 582.848 310.761 581.568C309.673 580.267 308.083 579.616 305.993 579.616C304.585 579.616 303.401 579.797 302.441 580.16C301.502 580.501 300.681 580.896 299.977 581.344C299.294 581.771 298.697 582.165 298.185 582.528C297.694 582.869 297.203 583.04 296.713 583.04C296.329 583.04 295.998 582.944 295.721 582.752C295.443 582.539 295.209 582.283 295.016 581.984L293.993 580.16ZM336.152 608.512C333.592 608.512 331.618 607.797 330.232 606.368C328.866 604.939 328.184 602.88 328.184 600.192V580.352H324.28C323.938 580.352 323.65 580.256 323.416 580.064C323.181 579.851 323.064 579.531 323.064 579.104V576.832L328.376 576.16L329.688 566.144C329.752 565.824 329.89 565.568 330.104 565.376C330.338 565.163 330.637 565.056 331 565.056H333.88V576.224H343.256V580.352H333.88V599.808C333.88 601.173 334.21 602.187 334.872 602.848C335.533 603.509 336.386 603.84 337.432 603.84C338.029 603.84 338.541 603.765 338.968 603.616C339.416 603.445 339.8 603.264 340.12 603.072C340.44 602.88 340.706 602.709 340.92 602.56C341.154 602.389 341.357 602.304 341.528 602.304C341.826 602.304 342.093 602.485 342.328 602.848L343.992 605.568C343.01 606.485 341.826 607.211 340.44 607.744C339.053 608.256 337.624 608.512 336.152 608.512Z" fill="white"/>
<path d="M281.312 929.312C281.12 929.632 280.907 929.877 280.672 930.048C280.459 930.197 280.192 930.272 279.872 930.272C279.509 930.272 279.083 930.091 278.592 929.728C278.101 929.365 277.483 928.971 276.736 928.544C276.011 928.096 275.125 927.691 274.08 927.328C273.056 926.965 271.808 926.784 270.336 926.784C268.949 926.784 267.723 926.976 266.656 927.36C265.611 927.723 264.725 928.224 264 928.864C263.296 929.504 262.763 930.261 262.4 931.136C262.037 931.989 261.856 932.917 261.856 933.92C261.856 935.2 262.165 936.267 262.784 937.12C263.424 937.952 264.256 938.667 265.28 939.264C266.325 939.861 267.499 940.384 268.8 940.832C270.123 941.259 271.467 941.707 272.832 942.176C274.219 942.645 275.563 943.179 276.864 943.776C278.187 944.352 279.36 945.088 280.384 945.984C281.429 946.88 282.261 947.979 282.88 949.28C283.52 950.581 283.84 952.181 283.84 954.08C283.84 956.085 283.499 957.973 282.816 959.744C282.133 961.493 281.131 963.019 279.808 964.32C278.507 965.621 276.896 966.645 274.976 967.392C273.077 968.139 270.912 968.512 268.48 968.512C265.493 968.512 262.784 967.979 260.352 966.912C257.92 965.824 255.84 964.363 254.112 962.528L255.904 959.584C256.075 959.349 256.277 959.157 256.512 959.008C256.768 958.837 257.045 958.752 257.344 958.752C257.621 958.752 257.931 958.869 258.272 959.104C258.635 959.317 259.04 959.595 259.488 959.936C259.936 960.277 260.448 960.651 261.024 961.056C261.6 961.461 262.251 961.835 262.976 962.176C263.723 962.517 264.565 962.805 265.504 963.04C266.443 963.253 267.499 963.36 268.672 963.36C270.144 963.36 271.456 963.157 272.608 962.752C273.76 962.347 274.731 961.781 275.52 961.056C276.331 960.309 276.949 959.424 277.376 958.4C277.803 957.376 278.016 956.235 278.016 954.976C278.016 953.589 277.696 952.459 277.056 951.584C276.437 950.688 275.616 949.941 274.592 949.344C273.568 948.747 272.395 948.245 271.072 947.84C269.749 947.413 268.405 946.987 267.04 946.56C265.675 946.112 264.331 945.6 263.008 945.024C261.685 944.448 260.512 943.701 259.488 942.784C258.464 941.867 257.632 940.725 256.992 939.36C256.373 937.973 256.064 936.267 256.064 934.24C256.064 932.619 256.373 931.051 256.992 929.536C257.632 928.021 258.549 926.677 259.744 925.504C260.96 924.331 262.443 923.392 264.192 922.688C265.963 921.984 267.989 921.632 270.272 921.632C272.832 921.632 275.157 922.037 277.248 922.848C279.36 923.659 281.216 924.832 282.816 926.368L281.312 929.312ZM317.293 935.584V968H313.901C313.09 968 312.578 967.605 312.365 966.816L311.917 963.328C310.509 964.885 308.93 966.144 307.181 967.104C305.432 968.043 303.426 968.512 301.165 968.512C299.394 968.512 297.826 968.224 296.461 967.648C295.117 967.051 293.986 966.219 293.069 965.152C292.152 964.085 291.458 962.795 290.989 961.28C290.541 959.765 290.317 958.091 290.317 956.256V935.584H296.013V956.256C296.013 958.709 296.568 960.608 297.677 961.952C298.808 963.296 300.525 963.968 302.829 963.968C304.514 963.968 306.082 963.573 307.533 962.784C309.005 961.973 310.36 960.864 311.597 959.456V935.584H317.293ZM331.701 940.288C332.405 939.499 333.151 938.784 333.941 938.144C334.73 937.504 335.562 936.96 336.437 936.512C337.333 936.043 338.271 935.691 339.253 935.456C340.255 935.2 341.333 935.072 342.485 935.072C344.255 935.072 345.813 935.371 347.157 935.968C348.522 936.544 349.653 937.376 350.549 938.464C351.466 939.531 352.159 940.821 352.629 942.336C353.098 943.851 353.333 945.525 353.333 947.36V968H347.605V947.36C347.605 944.907 347.039 943.008 345.909 941.664C344.799 940.299 343.103 939.616 340.821 939.616C339.135 939.616 337.557 940.021 336.085 940.832C334.634 941.643 333.29 942.741 332.053 944.128V968H326.325V935.584H329.749C330.559 935.584 331.061 935.979 331.253 936.768L331.701 940.288Z" fill="black"/>
<path d="M773.568 146.144V192H768.128V158.304C768.128 157.856 768.139 157.376 768.16 156.864C768.203 156.352 768.245 155.829 768.288 155.296L752.544 183.968C752.053 184.928 751.307 185.408 750.304 185.408H749.408C748.405 185.408 747.659 184.928 747.168 183.968L731.104 155.168C731.232 156.299 731.296 157.344 731.296 158.304V192H725.856V146.144H730.432C730.987 146.144 731.413 146.197 731.712 146.304C732.011 146.411 732.299 146.709 732.576 147.2L748.416 175.424C748.672 175.936 748.917 176.469 749.152 177.024C749.408 177.579 749.643 178.144 749.856 178.72C750.069 178.144 750.293 177.579 750.528 177.024C750.763 176.448 751.019 175.904 751.296 175.392L766.848 147.2C767.104 146.709 767.381 146.411 767.68 146.304C768 146.197 768.437 146.144 768.992 146.144H773.568ZM796.614 159.072C798.982 159.072 801.115 159.467 803.014 160.256C804.912 161.045 806.534 162.165 807.878 163.616C809.222 165.067 810.246 166.827 810.95 168.896C811.675 170.944 812.038 173.237 812.038 175.776C812.038 178.336 811.675 180.64 810.95 182.688C810.246 184.736 809.222 186.485 807.878 187.936C806.534 189.387 804.912 190.507 803.014 191.296C801.115 192.064 798.982 192.448 796.614 192.448C794.224 192.448 792.07 192.064 790.15 191.296C788.251 190.507 786.63 189.387 785.286 187.936C783.942 186.485 782.907 184.736 782.182 182.688C781.478 180.64 781.126 178.336 781.126 175.776C781.126 173.237 781.478 170.944 782.182 168.896C782.907 166.827 783.942 165.067 785.286 163.616C786.63 162.165 788.251 161.045 790.15 160.256C792.07 159.467 794.224 159.072 796.614 159.072ZM796.614 188C799.814 188 802.203 186.933 803.782 184.8C805.36 182.645 806.15 179.648 806.15 175.808C806.15 171.947 805.36 168.939 803.782 166.784C802.203 164.629 799.814 163.552 796.614 163.552C794.992 163.552 793.574 163.829 792.358 164.384C791.163 164.939 790.16 165.739 789.35 166.784C788.56 167.829 787.963 169.12 787.558 170.656C787.174 172.171 786.982 173.888 786.982 175.808C786.982 179.648 787.771 182.645 789.35 184.8C790.95 186.933 793.371 188 796.614 188ZM824.638 164.288C825.342 163.499 826.089 162.784 826.878 162.144C827.667 161.504 828.499 160.96 829.374 160.512C830.27 160.043 831.209 159.691 832.19 159.456C833.193 159.2 834.27 159.072 835.422 159.072C837.193 159.072 838.75 159.371 840.094 159.968C841.459 160.544 842.59 161.376 843.486 162.464C844.403 163.531 845.097 164.821 845.566 166.336C846.035 167.851 846.27 169.525 846.27 171.36V192H840.542V171.36C840.542 168.907 839.977 167.008 838.846 165.664C837.737 164.299 836.041 163.616 833.758 163.616C832.073 163.616 830.494 164.021 829.022 164.832C827.571 165.643 826.227 166.741 824.99 168.128V192H819.262V159.584H822.686C823.497 159.584 823.998 159.979 824.19 160.768L824.638 164.288Z" fill="black"/>
<path d="M764.864 551.36H750.016V592H743.84V551.36H728.96V546.144H764.864V551.36ZM790.293 559.584V592H786.901C786.09 592 785.578 591.605 785.365 590.816L784.917 587.328C783.509 588.885 781.93 590.144 780.181 591.104C778.432 592.043 776.426 592.512 774.165 592.512C772.394 592.512 770.826 592.224 769.461 591.648C768.117 591.051 766.986 590.219 766.069 589.152C765.152 588.085 764.458 586.795 763.989 585.28C763.541 583.765 763.317 582.091 763.317 580.256V559.584H769.013V580.256C769.013 582.709 769.568 584.608 770.677 585.952C771.808 587.296 773.525 587.968 775.829 587.968C777.514 587.968 779.082 587.573 780.533 586.784C782.005 585.973 783.36 584.864 784.597 583.456V559.584H790.293ZM821.021 572.256C821.021 570.933 820.829 569.728 820.445 568.64C820.082 567.531 819.538 566.581 818.813 565.792C818.109 564.981 817.245 564.363 816.221 563.936C815.197 563.488 814.034 563.264 812.733 563.264C810.002 563.264 807.837 564.064 806.237 565.664C804.658 567.243 803.677 569.44 803.293 572.256H821.021ZM825.629 587.456C824.925 588.309 824.082 589.056 823.101 589.696C822.119 590.315 821.063 590.827 819.933 591.232C818.823 591.637 817.671 591.936 816.477 592.128C815.282 592.341 814.098 592.448 812.925 592.448C810.685 592.448 808.615 592.075 806.717 591.328C804.839 590.56 803.207 589.451 801.821 588C800.455 586.528 799.389 584.715 798.621 582.56C797.853 580.405 797.469 577.931 797.469 575.136C797.469 572.875 797.81 570.763 798.493 568.8C799.197 566.837 800.199 565.141 801.501 563.712C802.802 562.261 804.391 561.131 806.269 560.32C808.146 559.488 810.258 559.072 812.605 559.072C814.546 559.072 816.338 559.403 817.981 560.064C819.645 560.704 821.074 561.643 822.269 562.88C823.485 564.096 824.434 565.611 825.117 567.424C825.799 569.216 826.141 571.264 826.141 573.568C826.141 574.464 826.045 575.061 825.853 575.36C825.661 575.659 825.298 575.808 824.765 575.808H803.101C803.165 577.856 803.442 579.637 803.933 581.152C804.445 582.667 805.149 583.936 806.045 584.96C806.941 585.963 808.007 586.72 809.245 587.232C810.482 587.723 811.869 587.968 813.405 587.968C814.834 587.968 816.061 587.808 817.085 587.488C818.13 587.147 819.026 586.784 819.773 586.4C820.519 586.016 821.138 585.664 821.629 585.344C822.141 585.003 822.578 584.832 822.941 584.832C823.41 584.832 823.773 585.013 824.029 585.376L825.629 587.456Z" fill="black"/>
<path d="M772.864 927.36H758.016V968H751.84V927.36H736.96V922.144H772.864V927.36ZM798.293 935.584V968H794.901C794.09 968 793.578 967.605 793.365 966.816L792.917 963.328C791.509 964.885 789.93 966.144 788.181 967.104C786.432 968.043 784.426 968.512 782.165 968.512C780.394 968.512 778.826 968.224 777.461 967.648C776.117 967.051 774.986 966.219 774.069 965.152C773.152 964.085 772.458 962.795 771.989 961.28C771.541 959.765 771.317 958.091 771.317 956.256V935.584H777.013V956.256C777.013 958.709 777.568 960.608 778.677 961.952C779.808 963.296 781.525 963.968 783.829 963.968C785.514 963.968 787.082 963.573 788.533 962.784C790.005 961.973 791.36 960.864 792.597 959.456V935.584H798.293ZM829.021 948.256C829.021 946.933 828.829 945.728 828.445 944.64C828.082 943.531 827.538 942.581 826.813 941.792C826.109 940.981 825.245 940.363 824.221 939.936C823.197 939.488 822.034 939.264 820.733 939.264C818.002 939.264 815.837 940.064 814.237 941.664C812.658 943.243 811.677 945.44 811.293 948.256H829.021ZM833.629 963.456C832.925 964.309 832.082 965.056 831.101 965.696C830.119 966.315 829.063 966.827 827.933 967.232C826.823 967.637 825.671 967.936 824.477 968.128C823.282 968.341 822.098 968.448 820.925 968.448C818.685 968.448 816.615 968.075 814.717 967.328C812.839 966.56 811.207 965.451 809.821 964C808.455 962.528 807.389 960.715 806.621 958.56C805.853 956.405 805.469 953.931 805.469 951.136C805.469 948.875 805.81 946.763 806.493 944.8C807.197 942.837 808.199 941.141 809.501 939.712C810.802 938.261 812.391 937.131 814.269 936.32C816.146 935.488 818.258 935.072 820.605 935.072C822.546 935.072 824.338 935.403 825.981 936.064C827.645 936.704 829.074 937.643 830.269 938.88C831.485 940.096 832.434 941.611 833.117 943.424C833.799 945.216 834.141 947.264 834.141 949.568C834.141 950.464 834.045 951.061 833.853 951.36C833.661 951.659 833.298 951.808 832.765 951.808H811.101C811.165 953.856 811.442 955.637 811.933 957.152C812.445 958.667 813.149 959.936 814.045 960.96C814.941 961.963 816.007 962.72 817.245 963.232C818.482 963.723 819.869 963.968 821.405 963.968C822.834 963.968 824.061 963.808 825.085 963.488C826.13 963.147 827.026 962.784 827.773 962.4C828.519 962.016 829.138 961.664 829.629 961.344C830.141 961.003 830.578 960.832 830.941 960.832C831.41 960.832 831.773 961.013 832.029 961.376L833.629 963.456Z" fill="black"/>
<path d="M287.169 715.996L210.239 623.079H364.099L287.169 715.996Z" fill="white"/>
<path d="M288.844 692.018L219.171 611.09H358.517L288.844 692.018Z" fill="#219653"/>
<path d="M228.451 584.114L298.21 664.943L158.865 665.141L228.451 584.114Z" fill="#219653"/>
<defs>
<filter id="filter0_d" x="0" y="0" width="1104" height="1288" filterUnits="userSpaceOnUse" color-interpolation-filters="sRGB">
<feFlood flood-opacity="0" result="BackgroundImageFix"/>
<feColorMatrix in="SourceAlpha" type="matrix" values="0 0 0 0 0 0 0 0 0 0 0 0 0 0 0 0 0 0 127 0"/>
<feOffset dy="4"/>
<feGaussianBlur stdDeviation="2"/>
<feColorMatrix type="matrix" values="0 0 0 0 0 0 0 0 0 0 0 0 0 0 0 0 0 0 0.25 0"/>
<feBlend mode="normal" in2="BackgroundImageFix" result="effect1_dropShadow"/>
<feBlend mode="normal" in="SourceGraphic" in2="effect1_dropShadow" result="shape"/>
</filter>
<filter id="filter1_d" x="128" y="88" width="340" height="340" filterUnits="userSpaceOnUse" color-interpolation-filters="sRGB">
<feFlood flood-opacity="0" result="BackgroundImageFix"/>
<feColorMatrix in="SourceAlpha" type="matrix" values="0 0 0 0 0 0 0 0 0 0 0 0 0 0 0 0 0 0 127 0"/>
<feOffset dy="4"/>
<feGaussianBlur stdDeviation="2"/>
<feColorMatrix type="matrix" values="0 0 0 0 0 0 0 0 0 0 0 0 0 0 0 0 0 0 0.25 0"/>
<feBlend mode="normal" in2="BackgroundImageFix" result="effect1_dropShadow"/>
<feBlend mode="normal" in="SourceGraphic" in2="effect1_dropShadow" result="shape"/>
</filter>
<filter id="filter2_d" x="608" y="88" width="340" height="340" filterUnits="userSpaceOnUse" color-interpolation-filters="sRGB">
<feFlood flood-opacity="0" result="BackgroundImageFix"/>
<feColorMatrix in="SourceAlpha" type="matrix" values="0 0 0 0 0 0 0 0 0 0 0 0 0 0 0 0 0 0 127 0"/>
<feOffset dy="4"/>
<feGaussianBlur stdDeviation="2"/>
<feColorMatrix type="matrix" values="0 0 0 0 0 0 0 0 0 0 0 0 0 0 0 0 0 0 0.25 0"/>
<feBlend mode="normal" in2="BackgroundImageFix" result="effect1_dropShadow"/>
<feBlend mode="normal" in="SourceGraphic" in2="effect1_dropShadow" result="shape"/>
</filter>
<filter id="filter3_d" x="128" y="856" width="340" height="340" filterUnits="userSpaceOnUse" color-interpolation-filters="sRGB">
<feFlood flood-opacity="0" result="BackgroundImageFix"/>
<feColorMatrix in="SourceAlpha" type="matrix" values="0 0 0 0 0 0 0 0 0 0 0 0 0 0 0 0 0 0 127 0"/>
<feOffset dy="4"/>
<feGaussianBlur stdDeviation="2"/>
<feColorMatrix type="matrix" values="0 0 0 0 0 0 0 0 0 0 0 0 0 0 0 0 0 0 0.25 0"/>
<feBlend mode="normal" in2="BackgroundImageFix" result="effect1_dropShadow"/>
<feBlend mode="normal" in="SourceGraphic" in2="effect1_dropShadow" result="shape"/>
</filter>
<filter id="filter4_d" x="612" y="856" width="340" height="340" filterUnits="userSpaceOnUse" color-interpolation-filters="sRGB">
<feFlood flood-opacity="0" result="BackgroundImageFix"/>
<feColorMatrix in="SourceAlpha" type="matrix" values="0 0 0 0 0 0 0 0 0 0 0 0 0 0 0 0 0 0 127 0"/>
<feOffset dy="4"/>
<feGaussianBlur stdDeviation="2"/>
<feColorMatrix type="matrix" values="0 0 0 0 0 0 0 0 0 0 0 0 0 0 0 0 0 0 0.25 0"/>
<feBlend mode="normal" in2="BackgroundImageFix" result="effect1_dropShadow"/>
<feBlend mode="normal" in="SourceGraphic" in2="effect1_dropShadow" result="shape"/>
</filter>
<filter id="filter5_d" x="608" y="472" width="340" height="340" filterUnits="userSpaceOnUse" color-interpolation-filters="sRGB">
<feFlood flood-opacity="0" result="BackgroundImageFix"/>
<feColorMatrix in="SourceAlpha" type="matrix" values="0 0 0 0 0 0 0 0 0 0 0 0 0 0 0 0 0 0 127 0"/>
<feOffset dy="4"/>
<feGaussianBlur stdDeviation="2"/>
<feColorMatrix type="matrix" values="0 0 0 0 0 0 0 0 0 0 0 0 0 0 0 0 0 0 0.25 0"/>
<feBlend mode="normal" in2="BackgroundImageFix" result="effect1_dropShadow"/>
<feBlend mode="normal" in="SourceGraphic" in2="effect1_dropShadow" result="shape"/>
</filter>
<filter id="filter6_d" x="128" y="484" width="340" height="340" filterUnits="userSpaceOnUse" color-interpolation-filters="sRGB">
<feFlood flood-opacity="0" result="BackgroundImageFix"/>
<feColorMatrix in="SourceAlpha" type="matrix" values="0 0 0 0 0 0 0 0 0 0 0 0 0 0 0 0 0 0 127 0"/>
<feOffset dy="4"/>
<feGaussianBlur stdDeviation="2"/>
<feColorMatrix type="matrix" values="0 0 0 0 0 0 0 0 0 0 0 0 0 0 0 0 0 0 0.25 0"/>
<feBlend mode="normal" in2="BackgroundImageFix" result="effect1_dropShadow"/>
<feBlend mode="normal" in="SourceGraphic" in2="effect1_dropShadow" result="shape"/>
</filter>
</defs>
</svg>
